<?xml version="1.0" encoding="utf-8"?>
<!-- Generator: Adobe Illustrator 26.0.1, SVG Export Plug-In . SVG Version: 6.00 Build 0)  -->
<svg version="1.1" id="Layer_1" xmlns="http://www.w3.org/2000/svg" xmlns:xlink="http://www.w3.org/1999/xlink" x="0px" y="0px"
	 viewBox="0 0 1303.2 351.9" style="enable-background:new 0 0 1303.2 351.9;" xml:space="preserve">
<style type="text/css">
	.st0{fill:#2274B9;}
	.st1{fill:#2F84C1;}
	.st2{fill:url(#SVGID_1_);}
	.st3{fill:url(#SVGID_00000175280856690988413100000006939861931931230857_);}
	.st4{fill:url(#SVGID_00000116195022664848959650000008989048807071321751_);}
	.st5{fill:url(#SVGID_00000035526113157278096260000013206493603839937708_);}
</style>
<g>
	<g>
		<path class="st0" d="M377.4,193.4c-0.9-2.6-1.5-4.2-1.5-12.5v-16c0-9.4-3.2-12.9-10.4-12.9H360v41.3h-16V91.9h24.1
			c16.5,0,23.6,7.7,23.6,23.3v8c0,10.4-3.3,17.1-10.4,20.4v0.3c8,3.3,10.6,10.9,10.6,21.5v15.7c0,4.9,0.1,8.6,1.7,12.3H377.4z
			 M360,106.4v31.2h6.2c5.9,0,9.6-2.6,9.6-10.7v-10c0-7.2-2.5-10.4-8.1-10.4H360z"/>
		<path class="st0" d="M418.3,134.7h21.9v14.5h-21.9v29.7h27.6v14.5h-43.5V91.9h43.5v14.5h-27.6V134.7z"/>
		<path class="st0" d="M507.3,193.4h-16.1l-2.8-18.4h-19.6l-2.8,18.4h-14.6l16.2-101.5h23.3L507.3,193.4z M470.9,161.2h15.4
			l-7.5-51.3h-0.3L470.9,161.2z"/>
		<path class="st0" d="M514.7,91.9h16v87h26.2v14.5h-42.2V91.9z"/>
		<path class="st0" d="M581.7,91.9H631v14.5h-16.7v87h-16v-87h-16.7V91.9z"/>
		<path class="st0" d="M638,91.9h16v101.5h-16V91.9z"/>
		<path class="st0" d="M699.2,164h0.3l10.7-72.1h22.2v101.5h-15.1v-72.8H717l-10.7,72.8h-15.1l-11.6-71.8h-0.3v71.8h-13.9V91.9h22.2
			L699.2,164z"/>
		<path class="st0" d="M759.9,134.7h21.9v14.5h-21.9v29.7h27.6v14.5H744V91.9h43.5v14.5h-27.6V134.7z"/>
		<path class="st0" d="M866.1,155.6v13.5c0,16.2-8.1,25.5-23.8,25.5c-15.7,0-23.8-9.3-23.8-25.5v-52.8c0-16.2,8.1-25.5,23.8-25.5
			c15.7,0,23.8,9.3,23.8,25.5v9.9H851v-10.9c0-7.3-3.2-10-8.3-10s-8.3,2.8-8.3,10v54.8c0,7.2,3.2,9.9,8.3,9.9s8.3-2.6,8.3-9.9v-14.5
			H866.1z"/>
		<path class="st0" d="M874.5,116.3c0-16.2,8.6-25.5,24.2-25.5s24.2,9.3,24.2,25.5v52.8c0,16.2-8.6,25.5-24.2,25.5
			s-24.2-9.3-24.2-25.5V116.3z M890.4,170.1c0,7.2,3.2,10,8.3,10s8.3-2.8,8.3-10v-54.8c0-7.3-3.2-10-8.3-10s-8.3,2.8-8.3,10V170.1z"
			/>
		<path class="st0" d="M966.8,164h0.3l10.7-72.1h22.2v101.5H985v-72.8h-0.3l-10.7,72.8h-15.1l-11.6-71.8H947v71.8H933V91.9h22.2
			L966.8,164z"/>
		<path class="st0" d="M1045.3,164h0.3l10.7-72.1h22.2v101.5h-15.1v-72.8h-0.3l-10.7,72.8h-15.1l-11.6-71.8h-0.3v71.8h-13.9V91.9
			h22.2L1045.3,164z"/>
		<path class="st0" d="M1106,134.7h21.9v14.5H1106v29.7h27.6v14.5h-43.5V91.9h43.5v14.5H1106V134.7z"/>
		<path class="st0" d="M1157.9,119.9h-0.3v73.5h-14.4V91.9h20l16.1,60.8h0.3V91.9h14.2v101.5h-16.4L1157.9,119.9z"/>
		<path class="st0" d="M1200.7,91.9h49.3v14.5h-16.7v87h-16v-87h-16.7V91.9z"/>
		<path class="st0" d="M1278.4,90.7c15.5,0,23.5,9.3,23.5,25.5v3.2h-15.1v-4.2c0-7.3-2.9-10-8-10c-5.1,0-8,2.8-8,10
			c0,7.4,3.2,12.9,13.6,22c13.3,11.7,17.5,20.2,17.5,31.8c0,16.2-8.1,25.5-23.8,25.5c-15.7,0-23.8-9.3-23.8-25.5v-6.2h15.1v7.2
			c0,7.2,3.2,9.9,8.3,9.9s8.3-2.6,8.3-9.9c0-7.4-3.2-12.9-13.6-22c-13.3-11.7-17.5-20.2-17.5-31.8
			C1254.9,100,1262.9,90.7,1278.4,90.7z"/>
	</g>
	<g>
		<path class="st1" d="M360,235v1.2c0,3.5-1.1,5.6-3.4,6.7v0.1c2.8,1.1,3.9,3.6,3.9,7.2v2.7c0,5.2-2.7,8-8,8h-8.3v-33.6h8
			C357.6,227.3,360,229.8,360,235z M349.5,232.1v8.9h2.1c2,0,3.2-0.9,3.2-3.6v-1.9c0-2.4-0.8-3.5-2.7-3.5H349.5z M349.5,245.7v10.3
			h3c1.8,0,2.7-0.8,2.7-3.3v-2.9c0-3.1-1-4.1-3.4-4.1H349.5z"/>
		<path class="st1" d="M369.1,241.4h7.2v4.8h-7.2v9.8h9.1v4.8h-14.4v-33.6h14.4v4.8h-9.1V241.4z"/>
		<path class="st1" d="M380,227.3h16.3v4.8h-5.5v28.8h-5.3v-28.8H380V227.3z"/>
		<path class="st1" d="M397.2,227.3h16.3v4.8H408v28.8h-5.3v-28.8h-5.5V227.3z"/>
		<path class="st1" d="M421.2,241.4h7.2v4.8h-7.2v9.8h9.1v4.8h-14.4v-33.6h14.4v4.8h-9.1V241.4z"/>
		<path class="st1" d="M444.7,260.9c-0.3-0.9-0.5-1.4-0.5-4.1v-5.3c0-3.1-1.1-4.3-3.5-4.3h-1.8v13.7h-5.3v-33.6h8
			c5.5,0,7.8,2.5,7.8,7.7v2.6c0,3.5-1.1,5.7-3.5,6.8v0.1c2.6,1.1,3.5,3.6,3.5,7.1v5.2c0,1.6,0,2.8,0.6,4.1H444.7z M438.9,232.1v10.3
			h2.1c2,0,3.2-0.9,3.2-3.6v-3.3c0-2.4-0.8-3.5-2.7-3.5H438.9z"/>
		<path class="st1" d="M472.3,243L472.3,243l-2,17.9h-7.2l-3.7-33.6h5.1l2.8,26.5h0.1l2.5-26.5h5.1l2.6,26.7h0.1l2.7-26.7h4.6
			l-3.7,33.6h-7L472.3,243z"/>
		<path class="st1" d="M487.3,235.3c0-5.4,2.8-8.4,8-8.4s8,3.1,8,8.4v17.5c0,5.4-2.8,8.4-8,8.4s-8-3.1-8-8.4V235.3z M492.6,253.1
			c0,2.4,1.1,3.3,2.7,3.3c1.7,0,2.7-0.9,2.7-3.3V235c0-2.4-1.1-3.3-2.7-3.3c-1.7,0-2.7,0.9-2.7,3.3V253.1z"/>
		<path class="st1" d="M517.9,260.9c-0.3-0.9-0.5-1.4-0.5-4.1v-5.3c0-3.1-1.1-4.3-3.5-4.3h-1.8v13.7h-5.3v-33.6h8
			c5.5,0,7.8,2.5,7.8,7.7v2.6c0,3.5-1.1,5.7-3.5,6.8v0.1c2.6,1.1,3.5,3.6,3.5,7.1v5.2c0,1.6,0,2.8,0.6,4.1H517.9z M512.1,232.1v10.3
			h2.1c2,0,3.2-0.9,3.2-3.6v-3.3c0-2.4-0.8-3.5-2.7-3.5H512.1z"/>
		<path class="st1" d="M526.2,227.3h8.4c5.3,0,7.9,2.9,7.9,8.3v17c0,5.4-2.6,8.3-7.9,8.3h-8.4V227.3z M531.5,232.1v24h3
			c1.7,0,2.7-0.9,2.7-3.3v-17.5c0-2.4-1-3.3-2.7-3.3H531.5z"/>
		<path class="st1" d="M561.5,235.6v4.4c0,5.4-2.6,8.3-7.9,8.3h-2.5v12.6h-5.3v-33.6h7.8C558.9,227.3,561.5,230.2,561.5,235.6z
			 M551.2,232.1v11.4h2.5c1.7,0,2.6-0.8,2.6-3.2v-5c0-2.4-0.9-3.2-2.6-3.2H551.2z"/>
		<path class="st1" d="M575.1,260.9c-0.3-0.9-0.5-1.4-0.5-4.1v-5.3c0-3.1-1.1-4.3-3.5-4.3h-1.8v13.7h-5.3v-33.6h8
			c5.5,0,7.8,2.5,7.8,7.7v2.6c0,3.5-1.1,5.7-3.5,6.8v0.1c2.6,1.1,3.5,3.6,3.5,7.1v5.2c0,1.6,0,2.8,0.6,4.1H575.1z M569.4,232.1v10.3
			h2.1c2,0,3.2-0.9,3.2-3.6v-3.3c0-2.4-0.8-3.5-2.7-3.5H569.4z"/>
		<path class="st1" d="M588.7,241.4h7.2v4.8h-7.2v9.8h9.1v4.8h-14.4v-33.6h14.4v4.8h-9.1V241.4z"/>
		<path class="st1" d="M608.3,226.9c5.1,0,7.8,3.1,7.8,8.4v1.1h-5V235c0-2.4-1-3.3-2.6-3.3c-1.7,0-2.6,0.9-2.6,3.3
			c0,2.4,1.1,4.3,4.5,7.3c4.4,3.9,5.8,6.7,5.8,10.5c0,5.4-2.7,8.4-7.9,8.4s-7.9-3.1-7.9-8.4v-2.1h5v2.4c0,2.4,1.1,3.3,2.7,3.3
			c1.7,0,2.7-0.9,2.7-3.3c0-2.4-1.1-4.3-4.5-7.3c-4.4-3.9-5.8-6.7-5.8-10.5C600.6,229.9,603.2,226.9,608.3,226.9z"/>
		<path class="st1" d="M626.4,226.9c5.1,0,7.8,3.1,7.8,8.4v1.1h-5V235c0-2.4-1-3.3-2.6-3.3c-1.7,0-2.6,0.9-2.6,3.3
			c0,2.4,1.1,4.3,4.5,7.3c4.4,3.9,5.8,6.7,5.8,10.5c0,5.4-2.7,8.4-7.9,8.4s-7.9-3.1-7.9-8.4v-2.1h5v2.4c0,2.4,1.1,3.3,2.7,3.3
			c1.7,0,2.7-0.9,2.7-3.3c0-2.4-1.1-4.3-4.5-7.3c-4.4-3.9-5.8-6.7-5.8-10.5C618.6,229.9,621.2,226.9,626.4,226.9z"/>
		<path class="st1" d="M660.2,248.3v4.5c0,5.4-2.7,8.4-7.9,8.4c-5.2,0-7.9-3.1-7.9-8.4v-17.5c0-5.4,2.7-8.4,7.9-8.4
			c5.2,0,7.9,3.1,7.9,8.4v3.3h-5V235c0-2.4-1.1-3.3-2.7-3.3c-1.7,0-2.7,0.9-2.7,3.3v18.1c0,2.4,1.1,3.3,2.7,3.3
			c1.7,0,2.7-0.9,2.7-3.3v-4.8H660.2z"/>
		<path class="st1" d="M663,235.3c0-5.4,2.8-8.4,8-8.4s8,3.1,8,8.4v17.5c0,5.4-2.8,8.4-8,8.4s-8-3.1-8-8.4V235.3z M668.3,253.1
			c0,2.4,1.1,3.3,2.7,3.3c1.7,0,2.7-0.9,2.7-3.3V235c0-2.4-1.1-3.3-2.7-3.3c-1.7,0-2.7,0.9-2.7,3.3V253.1z"/>
		<path class="st1" d="M693.7,251.1L693.7,251.1l3.6-23.9h7.3v33.6h-5v-24.1h-0.1l-3.6,24.1h-5l-3.8-23.8h-0.1v23.8h-4.6v-33.6h7.3
			L693.7,251.1z"/>
		<path class="st1" d="M719.8,251.1L719.8,251.1l3.6-23.9h7.3v33.6h-5v-24.1h-0.1l-3.6,24.1h-5l-3.8-23.8h-0.1v23.8h-4.6v-33.6h7.3
			L719.8,251.1z"/>
		<path class="st1" d="M740,241.4h7.2v4.8H740v9.8h9.1v4.8h-14.4v-33.6h14.4v4.8H740V241.4z"/>
		<path class="st1" d="M757.3,236.5L757.3,236.5l-0.1,24.3h-4.8v-33.6h6.6l5.3,20.1h0.1v-20.1h4.7v33.6h-5.4L757.3,236.5z"/>
		<path class="st1" d="M771.5,227.3h16.3v4.8h-5.5v28.8H777v-28.8h-5.5V227.3z"/>
		<path class="st1" d="M797.3,226.9c5.1,0,7.8,3.1,7.8,8.4v1.1h-5V235c0-2.4-1-3.3-2.6-3.3c-1.7,0-2.6,0.9-2.6,3.3
			c0,2.4,1.1,4.3,4.5,7.3c4.4,3.9,5.8,6.7,5.8,10.5c0,5.4-2.7,8.4-7.9,8.4s-7.9-3.1-7.9-8.4v-2.1h5v2.4c0,2.4,1.1,3.3,2.7,3.3
			c1.7,0,2.7-0.9,2.7-3.3c0-2.4-1.1-4.3-4.5-7.3c-4.4-3.9-5.8-6.7-5.8-10.5C789.6,229.9,792.2,226.9,797.3,226.9z"/>
		<path class="st1" d="M823.7,254.7L823.7,254.7l4.1-27.4h4.8l-5.2,33.6h-7.9l-5.2-33.6h5.3L823.7,254.7z"/>
		<path class="st1" d="M835.2,227.3h5.3v33.6h-5.3V227.3z"/>
		<path class="st1" d="M861.5,260.9h-5.3l-0.9-6.1h-6.5l-0.9,6.1H843l5.4-33.6h7.7L861.5,260.9z M849.5,250.2h5.1l-2.5-17H852
			L849.5,250.2z"/>
		<path class="st1" d="M888.7,260.9h-5.3l-0.9-6.1H876l-0.9,6.1h-4.8l5.4-33.6h7.7L888.7,260.9z M876.6,250.2h5.1l-2.5-17h-0.1
			L876.6,250.2z"/>
		<path class="st1" d="M889.8,256.1c0.6,0,1.2,0,1.8,0c1.7,0,3-0.6,3-3.2v-25.6h5.3v25.2c0,6.7-3.6,8.4-7.6,8.4c-1,0-1.7,0-2.5-0.1
			V256.1z"/>
		<path class="st1" d="M920.7,260.9h-5.3l-0.9-6.1H908l-0.9,6.1h-4.8l5.4-33.6h7.7L920.7,260.9z M908.7,250.2h5.1l-2.5-17h-0.1
			L908.7,250.2z"/>
		<path class="st1" d="M940.9,227.3l-5.5,16.3l5.9,17.3h-5.6l-4.3-13.3h-0.1l-4.3,13.3H922l5.9-17.3l-5.5-16.3h5.5l3.9,12.4h0.1
			l4-12.4H940.9z"/>
		<path class="st1" d="M951.1,235.3c0-5.4,2.8-8.4,8-8.4s8,3.1,8,8.4v17.5c0,5.4-2.8,8.4-8,8.4s-8-3.1-8-8.4V235.3z M956.4,253.1
			c0,2.4,1.1,3.3,2.7,3.3c1.7,0,2.7-0.9,2.7-3.3V235c0-2.4-1.1-3.3-2.7-3.3c-1.7,0-2.7,0.9-2.7,3.3V253.1z"/>
		<path class="st1" d="M981.7,260.9c-0.3-0.9-0.5-1.4-0.5-4.1v-5.3c0-3.1-1.1-4.3-3.5-4.3h-1.8v13.7h-5.3v-33.6h8
			c5.5,0,7.8,2.5,7.8,7.7v2.6c0,3.5-1.1,5.7-3.5,6.8v0.1c2.6,1.1,3.5,3.6,3.5,7.1v5.2c0,1.6,0,2.8,0.6,4.1H981.7z M975.9,232.1v10.3
			h2.1c2,0,3.2-0.9,3.2-3.6v-3.3c0-2.4-0.8-3.5-2.7-3.5H975.9z"/>
		<path class="st1" d="M1013.2,235.6v4.4c0,5.4-2.6,8.3-7.9,8.3h-2.5v12.6h-5.3v-33.6h7.8C1010.6,227.3,1013.2,230.2,1013.2,235.6z
			 M1002.8,232.1v11.4h2.5c1.7,0,2.6-0.8,2.6-3.2v-5c0-2.4-0.9-3.2-2.6-3.2H1002.8z"/>
		<path class="st1" d="M1020.8,227.3v25.9c0,2.4,1.1,3.3,2.7,3.3c1.7,0,2.7-0.9,2.7-3.3v-25.9h5v25.6c0,5.4-2.7,8.4-7.9,8.4
			s-7.9-3.1-7.9-8.4v-25.6H1020.8z"/>
		<path class="st1" d="M1042,226.9c5.1,0,7.8,3.1,7.8,8.4v1.1h-5V235c0-2.4-1-3.3-2.6-3.3c-1.7,0-2.6,0.9-2.6,3.3
			c0,2.4,1.1,4.3,4.5,7.3c4.4,3.9,5.8,6.7,5.8,10.5c0,5.4-2.7,8.4-7.9,8.4s-7.9-3.1-7.9-8.4v-2.1h5v2.4c0,2.4,1.1,3.3,2.7,3.3
			c1.7,0,2.7-0.9,2.7-3.3c0-2.4-1.1-4.3-4.5-7.3c-4.4-3.9-5.8-6.7-5.8-10.5C1034.3,229.9,1036.9,226.9,1042,226.9z"/>
		<path class="st1" d="M1058.3,260.9h-5.3v-33.6h5.3v14.4h6v-14.4h5.4v33.6h-5.4v-14.4h-6V260.9z"/>
		<path class="st1" d="M1078.9,241.4h7.2v4.8h-7.2v9.8h9.1v4.8h-14.4v-33.6h14.4v4.8h-9.1V241.4z"/>
		<path class="st1" d="M1102.4,260.9c-0.3-0.9-0.5-1.4-0.5-4.1v-5.3c0-3.1-1.1-4.3-3.5-4.3h-1.8v13.7h-5.3v-33.6h8
			c5.5,0,7.8,2.5,7.8,7.7v2.6c0,3.5-1.1,5.7-3.5,6.8v0.1c2.6,1.1,3.5,3.6,3.5,7.1v5.2c0,1.6,0,2.8,0.6,4.1H1102.4z M1096.6,232.1
			v10.3h2.1c2,0,3.2-0.9,3.2-3.6v-3.3c0-2.4-0.8-3.5-2.7-3.5H1096.6z"/>
		<path class="st1" d="M1118.3,227.3h5.3v33.6h-5.3V227.3z"/>
		<path class="st1" d="M1132.3,236.5L1132.3,236.5l-0.1,24.3h-4.8v-33.6h6.6l5.3,20.1h0.1v-20.1h4.7v33.6h-5.4L1132.3,236.5z"/>
		<path class="st1" d="M1166.7,260.9c-0.3-0.9-0.5-1.4-0.5-4.1v-5.3c0-3.1-1.1-4.3-3.5-4.3h-1.8v13.7h-5.3v-33.6h8
			c5.5,0,7.8,2.5,7.8,7.7v2.6c0,3.5-1.1,5.7-3.5,6.8v0.1c2.6,1.1,3.5,3.6,3.5,7.1v5.2c0,1.6,0,2.8,0.6,4.1H1166.7z M1160.9,232.1
			v10.3h2.1c2,0,3.2-0.9,3.2-3.6v-3.3c0-2.4-0.8-3.5-2.7-3.5H1160.9z"/>
		<path class="st1" d="M1180.3,241.4h7.2v4.8h-7.2v9.8h9.1v4.8H1175v-33.6h14.4v4.8h-9.1V241.4z"/>
		<path class="st1" d="M1209.9,260.9h-5.3l-0.9-6.1h-6.5l-0.9,6.1h-4.8l5.4-33.6h7.7L1209.9,260.9z M1197.8,250.2h5.1l-2.5-17h-0.1
			L1197.8,250.2z"/>
		<path class="st1" d="M1212.4,227.3h5.3v28.8h8.7v4.8h-14V227.3z"/>
		<path class="st1" d="M1234.8,227.3h16.3v4.8h-5.5v28.8h-5.3v-28.8h-5.5V227.3z"/>
		<path class="st1" d="M1253.5,227.3h5.3v33.6h-5.3V227.3z"/>
		<path class="st1" d="M1273.8,251.1L1273.8,251.1l3.6-23.9h7.3v33.6h-5v-24.1h-0.1l-3.6,24.1h-5l-3.8-23.8h-0.1v23.8h-4.6v-33.6
			h7.3L1273.8,251.1z"/>
		<path class="st1" d="M1294,241.4h7.2v4.8h-7.2v9.8h9.1v4.8h-14.4v-33.6h14.4v4.8h-9.1V241.4z"/>
	</g>
	<g>
		<linearGradient id="SVGID_1_" gradientUnits="userSpaceOnUse" x1="291.0122" y1="242.9855" x2="28.2199" y2="-12.7518">
			<stop  offset="0" style="stop-color:#3DA7DF"/>
			<stop  offset="1" style="stop-color:#28347B"/>
		</linearGradient>
		<polygon class="st2" points="270.8,106.3 270.8,262.7 52.9,136.9 52.9,169.2 256,286.5 297.2,262.7 297.2,91.1 148.6,5.3 
			122.2,20.5 		"/>
		
			<linearGradient id="SVGID_00000100381209883076457170000018107588971463931830_" gradientUnits="userSpaceOnUse" x1="206.1805" y1="330.1594" x2="-56.6111" y2="74.4227">
			<stop  offset="0" style="stop-color:#3DA7DF"/>
			<stop  offset="1" style="stop-color:#28347B"/>
		</linearGradient>
		<polygon style="fill:url(#SVGID_00000100381209883076457170000018107588971463931830_);" points="52.9,232.1 201.5,317.9 
			229.5,301.8 52.9,199.8 		"/>
		
			<linearGradient id="SVGID_00000078749228365016422050000004467189487172393860_" gradientUnits="userSpaceOnUse" x1="303.4112" y1="230.2505" x2="40.6129" y2="-25.4928">
			<stop  offset="0" style="stop-color:#3DA7DF"/>
			<stop  offset="1" style="stop-color:#28347B"/>
		</linearGradient>
		<polygon style="fill:url(#SVGID_00000078749228365016422050000004467189487172393860_);" points="67.7,52 244.3,154 244.3,121.6 
			95.7,35.8 		"/>
		
			<linearGradient id="SVGID_00000043450239107386525030000011612558375274287778_" gradientUnits="userSpaceOnUse" x1="218.5728" y1="317.4215" x2="-44.2191" y2="61.6845">
			<stop  offset="0" style="stop-color:#3DA7DF"/>
			<stop  offset="1" style="stop-color:#28347B"/>
		</linearGradient>
		<polygon style="fill:url(#SVGID_00000043450239107386525030000011612558375274287778_);" points="26.5,247.4 26.5,91.1 
			244.3,216.9 244.3,184.5 41.2,67.3 0,91.1 0,262.7 148.6,348.5 175.1,333.2 		"/>
	</g>
</g>
</svg>
