<?xml version="1.0" encoding="utf-8"?>
<!-- Generator: Adobe Illustrator 26.0.1, SVG Export Plug-In . SVG Version: 6.00 Build 0)  -->
<svg version="1.1" id="Layer_1" xmlns="http://www.w3.org/2000/svg" xmlns:xlink="http://www.w3.org/1999/xlink" x="0px" y="0px"
	 viewBox="0 0 256 256" style="enable-background:new 0 0 256 256;" xml:space="preserve">
<style type="text/css">
	.st0{fill:#2274B9;}
	.st1{fill:#2F84C1;}
	.st2{fill:url(#SVGID_1_);}
	.st3{fill:url(#SVGID_00000163757551067951317750000013611309782430665630_);}
	.st4{fill:url(#SVGID_00000165198750607733322240000003333909280548506753_);}
	.st5{fill:url(#SVGID_00000142873616528156171680000008612015138102373533_);}
</style>
<g>
	<path class="st0" d="M356.8,145.5c-0.9-2.6-1.5-4.2-1.5-12.5v-16c0-9.4-3.2-12.9-10.4-12.9h-5.5v41.3h-16V44h24.1
		c16.5,0,23.6,7.7,23.6,23.3v8c0,10.4-3.3,17.1-10.4,20.4V96c8,3.3,10.6,10.9,10.6,21.5v15.7c0,4.9,0.1,8.6,1.7,12.3H356.8z
		 M339.4,58.5v31.2h6.2c5.9,0,9.6-2.6,9.6-10.7v-10c0-7.2-2.5-10.4-8.1-10.4H339.4z"/>
	<path class="st0" d="M397.7,86.7h21.9v14.5h-21.9V131h27.6v14.5h-43.5V44h43.5v14.5h-27.6V86.7z"/>
	<path class="st0" d="M486.7,145.5h-16.1l-2.8-18.4h-19.6l-2.8,18.4h-14.6L447.1,44h23.3L486.7,145.5z M450.3,113.3h15.4L458.2,62
		h-0.3L450.3,113.3z"/>
	<path class="st0" d="M494.1,44h16v87h26.2v14.5h-42.2V44z"/>
	<path class="st0" d="M561.1,44h49.3v14.5h-16.7v87h-16v-87h-16.7V44z"/>
	<path class="st0" d="M617.4,44h16v101.5h-16V44z"/>
	<path class="st0" d="M678.6,116h0.3L689.6,44h22.2v101.5h-15.1V72.7h-0.3l-10.7,72.8h-15.1L659,73.7h-0.3v71.8h-13.9V44H667
		L678.6,116z"/>
	<path class="st0" d="M739.3,86.7h21.9v14.5h-21.9V131h27.6v14.5h-43.5V44h43.5v14.5h-27.6V86.7z"/>
	<path class="st0" d="M845.4,107.6v13.5c0,16.2-8.1,25.5-23.8,25.5c-15.7,0-23.8-9.3-23.8-25.5V68.3c0-16.2,8.1-25.5,23.8-25.5
		c15.7,0,23.8,9.3,23.8,25.5v9.9h-15.1V67.3c0-7.3-3.2-10-8.3-10s-8.3,2.8-8.3,10v54.8c0,7.2,3.2,9.9,8.3,9.9s8.3-2.6,8.3-9.9v-14.5
		H845.4z"/>
	<path class="st0" d="M853.9,68.3c0-16.2,8.6-25.5,24.2-25.5s24.2,9.3,24.2,25.5v52.8c0,16.2-8.6,25.5-24.2,25.5
		s-24.2-9.3-24.2-25.5V68.3z M869.8,122.1c0,7.2,3.2,10,8.3,10s8.3-2.8,8.3-10V67.3c0-7.3-3.2-10-8.3-10s-8.3,2.8-8.3,10V122.1z"/>
	<path class="st0" d="M946.2,116h0.3L957.2,44h22.2v101.5h-15.1V72.7h-0.3l-10.7,72.8h-15.1l-11.6-71.8h-0.3v71.8h-13.9V44h22.2
		L946.2,116z"/>
	<path class="st0" d="M1024.7,116h0.3l10.7-72.1h22.2v101.5h-15.1V72.7h-0.3l-10.7,72.8h-15.1l-11.6-71.8h-0.3v71.8h-13.9V44h22.2
		L1024.7,116z"/>
	<path class="st0" d="M1085.4,86.7h21.9v14.5h-21.9V131h27.6v14.5h-43.5V44h43.5v14.5h-27.6V86.7z"/>
	<path class="st0" d="M1137.3,72h-0.3v73.5h-14.4V44h20l16.1,60.8h0.3V44h14.2v101.5h-16.4L1137.3,72z"/>
	<path class="st0" d="M1180.1,44h49.3v14.5h-16.7v87h-16v-87h-16.7V44z"/>
	<path class="st0" d="M1257.8,42.8c15.5,0,23.5,9.3,23.5,25.5v3.2h-15.1v-4.2c0-7.3-2.9-10-8-10c-5.1,0-8,2.8-8,10
		c0,7.4,3.2,12.9,13.6,22c13.3,11.7,17.5,20.2,17.5,31.8c0,16.2-8.1,25.5-23.8,25.5c-15.7,0-23.8-9.3-23.8-25.5v-6.2h15.1v7.2
		c0,7.2,3.2,9.9,8.3,9.9s8.3-2.6,8.3-9.9c0-7.4-3.2-12.9-13.6-22c-13.3-11.7-17.5-20.2-17.5-31.8
		C1234.3,52.1,1242.3,42.8,1257.8,42.8z"/>
</g>
<g>
	<path class="st1" d="M339.4,187.1v1.2c0,3.5-1.1,5.6-3.4,6.7v0.1c2.8,1.1,3.9,3.6,3.9,7.2v2.7c0,5.2-2.7,8-8,8h-8.3v-33.6h8
		C337,179.3,339.4,181.9,339.4,187.1z M328.9,184.1v8.9h2.1c2,0,3.2-0.9,3.2-3.6v-1.9c0-2.4-0.8-3.5-2.7-3.5H328.9z M328.9,197.8
		v10.3h3c1.8,0,2.7-0.8,2.7-3.3v-2.9c0-3.1-1-4.1-3.4-4.1H328.9z"/>
	<path class="st1" d="M348.4,193.5h7.2v4.8h-7.2v9.8h9.1v4.8h-14.4v-33.6h14.4v4.8h-9.1V193.5z"/>
	<path class="st1" d="M359.4,179.3h16.3v4.8h-5.5v28.8h-5.3v-28.8h-5.5V179.3z"/>
	<path class="st1" d="M376.6,179.3h16.3v4.8h-5.5v28.8h-5.3v-28.8h-5.5V179.3z"/>
	<path class="st1" d="M400.6,193.5h7.2v4.8h-7.2v9.8h9.1v4.8h-14.4v-33.6h14.4v4.8h-9.1V193.5z"/>
	<path class="st1" d="M424.1,212.9c-0.3-0.9-0.5-1.4-0.5-4.1v-5.3c0-3.1-1.1-4.3-3.5-4.3h-1.8v13.7H413v-33.6h8
		c5.5,0,7.8,2.5,7.8,7.7v2.6c0,3.5-1.1,5.7-3.5,6.8v0.1c2.6,1.1,3.5,3.6,3.5,7.1v5.2c0,1.6,0,2.8,0.6,4.1H424.1z M418.3,184.1v10.3
		h2.1c2,0,3.2-0.9,3.2-3.6v-3.3c0-2.4-0.8-3.5-2.7-3.5H418.3z"/>
	<path class="st1" d="M451.7,195L451.7,195l-2,17.9h-7.2l-3.7-33.6h5.1l2.8,26.5h0.1l2.5-26.5h5.1L457,206h0.1l2.7-26.7h4.6
		l-3.7,33.6h-7L451.7,195z"/>
	<path class="st1" d="M466.7,187.4c0-5.4,2.8-8.4,8-8.4s8,3.1,8,8.4v17.5c0,5.4-2.8,8.4-8,8.4s-8-3.1-8-8.4V187.4z M471.9,205.2
		c0,2.4,1.1,3.3,2.7,3.3c1.7,0,2.7-0.9,2.7-3.3v-18.1c0-2.4-1.1-3.3-2.7-3.3c-1.7,0-2.7,0.9-2.7,3.3V205.2z"/>
	<path class="st1" d="M497.2,212.9c-0.3-0.9-0.5-1.4-0.5-4.1v-5.3c0-3.1-1.1-4.3-3.5-4.3h-1.8v13.7h-5.3v-33.6h8
		c5.5,0,7.8,2.5,7.8,7.7v2.6c0,3.5-1.1,5.7-3.5,6.8v0.1c2.6,1.1,3.5,3.6,3.5,7.1v5.2c0,1.6,0,2.8,0.6,4.1H497.2z M491.5,184.1v10.3
		h2.1c2,0,3.2-0.9,3.2-3.6v-3.3c0-2.4-0.8-3.5-2.7-3.5H491.5z"/>
	<path class="st1" d="M505.6,179.3h8.4c5.3,0,7.9,2.9,7.9,8.3v17c0,5.4-2.6,8.3-7.9,8.3h-8.4V179.3z M510.9,184.1v24h3
		c1.7,0,2.7-0.9,2.7-3.3v-17.5c0-2.4-1-3.3-2.7-3.3H510.9z"/>
	<path class="st1" d="M540.9,187.6v4.4c0,5.4-2.6,8.3-7.9,8.3h-2.5v12.6h-5.3v-33.6h7.8C538.3,179.3,540.9,182.2,540.9,187.6z
		 M530.5,184.1v11.4h2.5c1.7,0,2.6-0.8,2.6-3.2v-5c0-2.4-0.9-3.2-2.6-3.2H530.5z"/>
	<path class="st1" d="M554.5,212.9c-0.3-0.9-0.5-1.4-0.5-4.1v-5.3c0-3.1-1.1-4.3-3.5-4.3h-1.8v13.7h-5.3v-33.6h8
		c5.5,0,7.8,2.5,7.8,7.7v2.6c0,3.5-1.1,5.7-3.5,6.8v0.1c2.6,1.1,3.5,3.6,3.5,7.1v5.2c0,1.6,0,2.8,0.6,4.1H554.5z M548.7,184.1v10.3
		h2.1c2,0,3.2-0.9,3.2-3.6v-3.3c0-2.4-0.8-3.5-2.7-3.5H548.7z"/>
	<path class="st1" d="M568.1,193.5h7.2v4.8h-7.2v9.8h9.1v4.8h-14.4v-33.6h14.4v4.8h-9.1V193.5z"/>
	<path class="st1" d="M587.7,178.9c5.1,0,7.8,3.1,7.8,8.4v1.1h-5v-1.4c0-2.4-1-3.3-2.6-3.3c-1.7,0-2.6,0.9-2.6,3.3
		c0,2.4,1.1,4.3,4.5,7.3c4.4,3.9,5.8,6.7,5.8,10.5c0,5.4-2.7,8.4-7.9,8.4s-7.9-3.1-7.9-8.4v-2.1h5v2.4c0,2.4,1.1,3.3,2.7,3.3
		c1.7,0,2.7-0.9,2.7-3.3c0-2.4-1.1-4.3-4.5-7.3c-4.4-3.9-5.8-6.7-5.8-10.5C579.9,182,582.6,178.9,587.7,178.9z"/>
	<path class="st1" d="M605.8,178.9c5.1,0,7.8,3.1,7.8,8.4v1.1h-5v-1.4c0-2.4-1-3.3-2.6-3.3c-1.7,0-2.6,0.9-2.6,3.3
		c0,2.4,1.1,4.3,4.5,7.3c4.4,3.9,5.8,6.7,5.8,10.5c0,5.4-2.7,8.4-7.9,8.4s-7.9-3.1-7.9-8.4v-2.1h5v2.4c0,2.4,1.1,3.3,2.7,3.3
		c1.7,0,2.7-0.9,2.7-3.3c0-2.4-1.1-4.3-4.5-7.3c-4.4-3.9-5.8-6.7-5.8-10.5C598,182,600.6,178.9,605.8,178.9z"/>
	<path class="st1" d="M639.6,200.4v4.5c0,5.4-2.7,8.4-7.9,8.4c-5.2,0-7.9-3.1-7.9-8.4v-17.5c0-5.4,2.7-8.4,7.9-8.4
		c5.2,0,7.9,3.1,7.9,8.4v3.3h-5v-3.6c0-2.4-1.1-3.3-2.7-3.3c-1.7,0-2.7,0.9-2.7,3.3v18.1c0,2.4,1.1,3.3,2.7,3.3
		c1.7,0,2.7-0.9,2.7-3.3v-4.8H639.6z"/>
	<path class="st1" d="M642.4,187.4c0-5.4,2.8-8.4,8-8.4s8,3.1,8,8.4v17.5c0,5.4-2.8,8.4-8,8.4s-8-3.1-8-8.4V187.4z M647.7,205.2
		c0,2.4,1.1,3.3,2.7,3.3c1.7,0,2.7-0.9,2.7-3.3v-18.1c0-2.4-1.1-3.3-2.7-3.3c-1.7,0-2.7,0.9-2.7,3.3V205.2z"/>
	<path class="st1" d="M673.1,203.2L673.1,203.2l3.6-23.9h7.3v33.6h-5v-24.1H679l-3.6,24.1h-5l-3.8-23.8h-0.1v23.8h-4.6v-33.6h7.3
		L673.1,203.2z"/>
	<path class="st1" d="M699.2,203.2L699.2,203.2l3.6-23.9h7.3v33.6h-5v-24.1h-0.1l-3.6,24.1h-5l-3.8-23.8h-0.1v23.8H688v-33.6h7.3
		L699.2,203.2z"/>
	<path class="st1" d="M719.4,193.5h7.2v4.8h-7.2v9.8h9.1v4.8h-14.4v-33.6h14.4v4.8h-9.1V193.5z"/>
	<path class="st1" d="M736.7,188.6L736.7,188.6l-0.1,24.3h-4.8v-33.6h6.6l5.3,20.1h0.1v-20.1h4.7v33.6h-5.4L736.7,188.6z"/>
	<path class="st1" d="M750.9,179.3h16.3v4.8h-5.5v28.8h-5.3v-28.8h-5.5V179.3z"/>
	<path class="st1" d="M776.7,178.9c5.1,0,7.8,3.1,7.8,8.4v1.1h-5v-1.4c0-2.4-1-3.3-2.6-3.3c-1.7,0-2.6,0.9-2.6,3.3
		c0,2.4,1.1,4.3,4.5,7.3c4.4,3.9,5.8,6.7,5.8,10.5c0,5.4-2.7,8.4-7.9,8.4s-7.9-3.1-7.9-8.4v-2.1h5v2.4c0,2.4,1.1,3.3,2.7,3.3
		c1.7,0,2.7-0.9,2.7-3.3c0-2.4-1.1-4.3-4.5-7.3c-4.4-3.9-5.8-6.7-5.8-10.5C769,182,771.6,178.9,776.7,178.9z"/>
	<path class="st1" d="M803.1,206.7L803.1,206.7l4.1-27.4h4.8l-5.2,33.6H799l-5.2-33.6h5.3L803.1,206.7z"/>
	<path class="st1" d="M814.6,179.3h5.3v33.6h-5.3V179.3z"/>
	<path class="st1" d="M840.9,212.9h-5.3l-0.9-6.1h-6.5l-0.9,6.1h-4.8l5.4-33.6h7.7L840.9,212.9z M828.9,202.3h5.1l-2.5-17h-0.1
		L828.9,202.3z"/>
	<path class="st1" d="M868.1,212.9h-5.3l-0.9-6.1h-6.5l-0.9,6.1h-4.8l5.4-33.6h7.7L868.1,212.9z M856,202.3h5.1l-2.5-17h-0.1
		L856,202.3z"/>
	<path class="st1" d="M869.2,208.1c0.6,0,1.2,0,1.8,0c1.7,0,3-0.6,3-3.2v-25.6h5.3v25.2c0,6.7-3.6,8.4-7.6,8.4c-1,0-1.7,0-2.5-0.1
		V208.1z"/>
	<path class="st1" d="M900.1,212.9h-5.3l-0.9-6.1h-6.5l-0.9,6.1h-4.8l5.4-33.6h7.7L900.1,212.9z M888,202.3h5.1l-2.5-17h-0.1
		L888,202.3z"/>
	<path class="st1" d="M920.3,179.3l-5.5,16.3l5.9,17.3h-5.6l-4.3-13.3h-0.1l-4.3,13.3h-4.9l5.9-17.3l-5.5-16.3h5.5l3.9,12.4h0.1
		l4-12.4H920.3z"/>
	<path class="st1" d="M930.5,187.4c0-5.4,2.8-8.4,8-8.4s8,3.1,8,8.4v17.5c0,5.4-2.8,8.4-8,8.4s-8-3.1-8-8.4V187.4z M935.8,205.2
		c0,2.4,1.1,3.3,2.7,3.3c1.7,0,2.7-0.9,2.7-3.3v-18.1c0-2.4-1.1-3.3-2.7-3.3c-1.7,0-2.7,0.9-2.7,3.3V205.2z"/>
	<path class="st1" d="M961.1,212.9c-0.3-0.9-0.5-1.4-0.5-4.1v-5.3c0-3.1-1.1-4.3-3.5-4.3h-1.8v13.7H950v-33.6h8
		c5.5,0,7.8,2.5,7.8,7.7v2.6c0,3.5-1.1,5.7-3.5,6.8v0.1c2.6,1.1,3.5,3.6,3.5,7.1v5.2c0,1.6,0,2.8,0.6,4.1H961.1z M955.3,184.1v10.3
		h2.1c2,0,3.2-0.9,3.2-3.6v-3.3c0-2.4-0.8-3.5-2.7-3.5H955.3z"/>
	<path class="st1" d="M992.6,187.6v4.4c0,5.4-2.6,8.3-7.9,8.3h-2.5v12.6h-5.3v-33.6h7.8C990,179.3,992.6,182.2,992.6,187.6z
		 M982.2,184.1v11.4h2.5c1.7,0,2.6-0.8,2.6-3.2v-5c0-2.4-0.9-3.2-2.6-3.2H982.2z"/>
	<path class="st1" d="M1000.2,179.3v25.9c0,2.4,1.1,3.3,2.7,3.3c1.7,0,2.7-0.9,2.7-3.3v-25.9h5v25.6c0,5.4-2.7,8.4-7.9,8.4
		s-7.9-3.1-7.9-8.4v-25.6H1000.2z"/>
	<path class="st1" d="M1021.4,178.9c5.1,0,7.8,3.1,7.8,8.4v1.1h-5v-1.4c0-2.4-1-3.3-2.6-3.3c-1.7,0-2.6,0.9-2.6,3.3
		c0,2.4,1.1,4.3,4.5,7.3c4.4,3.9,5.8,6.7,5.8,10.5c0,5.4-2.7,8.4-7.9,8.4c-5.2,0-7.9-3.1-7.9-8.4v-2.1h5v2.4c0,2.4,1.1,3.3,2.7,3.3
		c1.7,0,2.7-0.9,2.7-3.3c0-2.4-1.1-4.3-4.5-7.3c-4.4-3.9-5.8-6.7-5.8-10.5C1013.7,182,1016.3,178.9,1021.4,178.9z"/>
	<path class="st1" d="M1037.7,212.9h-5.3v-33.6h5.3v14.4h6v-14.4h5.4v33.6h-5.4v-14.4h-6V212.9z"/>
	<path class="st1" d="M1058.2,193.5h7.2v4.8h-7.2v9.8h9.1v4.8H1053v-33.6h14.4v4.8h-9.1V193.5z"/>
	<path class="st1" d="M1081.8,212.9c-0.3-0.9-0.5-1.4-0.5-4.1v-5.3c0-3.1-1.1-4.3-3.5-4.3h-1.8v13.7h-5.3v-33.6h8
		c5.5,0,7.8,2.5,7.8,7.7v2.6c0,3.5-1.1,5.7-3.5,6.8v0.1c2.6,1.1,3.5,3.6,3.5,7.1v5.2c0,1.6,0,2.8,0.6,4.1H1081.8z M1076,184.1v10.3
		h2.1c2,0,3.2-0.9,3.2-3.6v-3.3c0-2.4-0.8-3.5-2.7-3.5H1076z"/>
	<path class="st1" d="M1097.7,179.3h5.3v33.6h-5.3V179.3z"/>
	<path class="st1" d="M1111.7,188.6L1111.7,188.6l-0.1,24.3h-4.8v-33.6h6.6l5.3,20.1h0.1v-20.1h4.7v33.6h-5.4L1111.7,188.6z"/>
	<path class="st1" d="M1146,212.9c-0.3-0.9-0.5-1.4-0.5-4.1v-5.3c0-3.1-1.1-4.3-3.5-4.3h-1.8v13.7h-5.3v-33.6h8
		c5.5,0,7.8,2.5,7.8,7.7v2.6c0,3.5-1.1,5.7-3.5,6.8v0.1c2.6,1.1,3.5,3.6,3.5,7.1v5.2c0,1.6,0,2.8,0.6,4.1H1146z M1140.3,184.1v10.3
		h2.1c2,0,3.2-0.9,3.2-3.6v-3.3c0-2.4-0.8-3.5-2.7-3.5H1140.3z"/>
	<path class="st1" d="M1159.7,193.5h7.2v4.8h-7.2v9.8h9.1v4.8h-14.4v-33.6h14.4v4.8h-9.1V193.5z"/>
	<path class="st1" d="M1189.2,212.9h-5.3l-0.9-6.1h-6.5l-0.9,6.1h-4.8l5.4-33.6h7.7L1189.2,212.9z M1177.2,202.3h5.1l-2.5-17h-0.1
		L1177.2,202.3z"/>
	<path class="st1" d="M1191.8,179.3h5.3v28.8h8.7v4.8h-14V179.3z"/>
	<path class="st1" d="M1214.1,179.3h16.3v4.8h-5.5v28.8h-5.3v-28.8h-5.5V179.3z"/>
	<path class="st1" d="M1232.9,179.3h5.3v33.6h-5.3V179.3z"/>
	<path class="st1" d="M1253.2,203.2L1253.2,203.2l3.6-23.9h7.3v33.6h-5v-24.1h-0.1l-3.6,24.1h-5l-3.8-23.8h-0.1v23.8h-4.6v-33.6h7.3
		L1253.2,203.2z"/>
	<path class="st1" d="M1273.4,193.5h7.2v4.8h-7.2v9.8h9.1v4.8h-14.4v-33.6h14.4v4.8h-9.1V193.5z"/>
</g>
<g>
	<linearGradient id="SVGID_1_" gradientUnits="userSpaceOnUse" x1="229.7849" y1="175.2555" x2="41.9424" y2="-7.5443">
		<stop  offset="0" style="stop-color:#3DA7DF"/>
		<stop  offset="1" style="stop-color:#28347B"/>
	</linearGradient>
	<polygon class="st2" points="215.3,77.6 215.3,189.3 59.6,99.4 59.6,122.5 204.8,206.4 234.2,189.3 234.2,66.7 128,5.3 109.1,16.3 
			"/>
	
		<linearGradient id="SVGID_00000095319455120279626350000008787492723841524671_" gradientUnits="userSpaceOnUse" x1="169.1477" y1="237.5669" x2="-18.6944" y2="54.7676">
		<stop  offset="0" style="stop-color:#3DA7DF"/>
		<stop  offset="1" style="stop-color:#28347B"/>
	</linearGradient>
	<polygon style="fill:url(#SVGID_00000095319455120279626350000008787492723841524671_);" points="59.6,167.5 165.8,228.8 
		185.8,217.3 59.6,144.4 	"/>
	
		<linearGradient id="SVGID_00000134967516048542474010000009723408984597742215_" gradientUnits="userSpaceOnUse" x1="238.6477" y1="166.1525" x2="50.8008" y2="-16.6514">
		<stop  offset="0" style="stop-color:#3DA7DF"/>
		<stop  offset="1" style="stop-color:#28347B"/>
	</linearGradient>
	<polygon style="fill:url(#SVGID_00000134967516048542474010000009723408984597742215_);" points="70.2,38.7 196.4,111.6 
		196.4,88.5 90.2,27.2 	"/>
	
		<linearGradient id="SVGID_00000035518756254343361230000004789617515786649770_" gradientUnits="userSpaceOnUse" x1="178.0057" y1="228.4619" x2="-9.8366" y2="45.6625">
		<stop  offset="0" style="stop-color:#3DA7DF"/>
		<stop  offset="1" style="stop-color:#28347B"/>
	</linearGradient>
	<polygon style="fill:url(#SVGID_00000035518756254343361230000004789617515786649770_);" points="40.7,178.4 40.7,66.7 
		196.4,156.6 196.4,133.5 51.2,49.6 21.8,66.7 21.8,189.3 128,250.7 146.9,239.7 	"/>
</g>
</svg>
