<?xml version="1.0" encoding="utf-8"?>
<!-- Generator: Adobe Illustrator 26.0.1, SVG Export Plug-In . SVG Version: 6.00 Build 0)  -->
<svg version="1.1" id="Layer_1" xmlns="http://www.w3.org/2000/svg" xmlns:xlink="http://www.w3.org/1999/xlink" x="0px" y="0px"
	 viewBox="0 0 1303.2 351.9" style="enable-background:new 0 0 1303.2 351.9;" xml:space="preserve">
<style type="text/css">
	.st0{fill:#2274B9;}
	.st1{font-family:'BebasNeue';}
	.st2{font-size:145px;}
	.st3{fill:#2F84C1;}
	.st4{font-size:48px;}
	.st5{fill:url(#SVGID_1_);}
	.st6{fill:url(#SVGID_00000024711469198368609150000016898926561965383337_);}
	.st7{fill:url(#SVGID_00000029029580625399370160000000830151314537319843_);}
	.st8{fill:url(#SVGID_00000117651210378839482750000000691626412160841600_);}
</style>
<g>
	<text transform="matrix(1 0 0 1 338.2681 193.4106)" class="st0 st1 st2">real time comments</text>
	<text transform="matrix(1 0 0 1 342.2682 260.8624)" class="st3 st1 st4">better Wordpress comments via Ajax or pusher in real time</text>
	<g>
		<linearGradient id="SVGID_1_" gradientUnits="userSpaceOnUse" x1="291.0122" y1="242.9855" x2="28.2199" y2="-12.7518">
			<stop  offset="0" style="stop-color:#3DA7DF"/>
			<stop  offset="1" style="stop-color:#28347B"/>
		</linearGradient>
		<polygon class="st5" points="270.8,106.3 270.8,262.7 52.9,136.9 52.9,169.2 256,286.5 297.2,262.7 297.2,91.1 148.6,5.3 
			122.2,20.5 		"/>
		
			<linearGradient id="SVGID_00000061465618473444715680000009846660044132972968_" gradientUnits="userSpaceOnUse" x1="206.1805" y1="330.1594" x2="-56.6111" y2="74.4227">
			<stop  offset="0" style="stop-color:#3DA7DF"/>
			<stop  offset="1" style="stop-color:#28347B"/>
		</linearGradient>
		<polygon style="fill:url(#SVGID_00000061465618473444715680000009846660044132972968_);" points="52.9,232.1 201.5,317.9 
			229.5,301.8 52.9,199.8 		"/>
		
			<linearGradient id="SVGID_00000093144045739511221790000013762977602437919894_" gradientUnits="userSpaceOnUse" x1="303.4112" y1="230.2505" x2="40.6129" y2="-25.4928">
			<stop  offset="0" style="stop-color:#3DA7DF"/>
			<stop  offset="1" style="stop-color:#28347B"/>
		</linearGradient>
		<polygon style="fill:url(#SVGID_00000093144045739511221790000013762977602437919894_);" points="67.7,52 244.3,154 244.3,121.6 
			95.7,35.8 		"/>
		
			<linearGradient id="SVGID_00000030457470505530631450000000313841998297772980_" gradientUnits="userSpaceOnUse" x1="218.5728" y1="317.4215" x2="-44.2191" y2="61.6845">
			<stop  offset="0" style="stop-color:#3DA7DF"/>
			<stop  offset="1" style="stop-color:#28347B"/>
		</linearGradient>
		<polygon style="fill:url(#SVGID_00000030457470505530631450000000313841998297772980_);" points="26.5,247.4 26.5,91.1 
			244.3,216.9 244.3,184.5 41.2,67.3 0,91.1 0,262.7 148.6,348.5 175.1,333.2 		"/>
	</g>
</g>
</svg>
