<?xml version="1.0" encoding="utf-8"?>
<!-- Generator: Adobe Illustrator 26.0.1, SVG Export Plug-In . SVG Version: 6.00 Build 0)  -->
<svg version="1.1" id="Layer_1" xmlns="http://www.w3.org/2000/svg" xmlns:xlink="http://www.w3.org/1999/xlink" x="0px" y="0px"
	 viewBox="0 0 128 128" style="enable-background:new 0 0 128 128;" xml:space="preserve">
<style type="text/css">
	.st0{fill:#2274B9;}
	.st1{fill:#2F84C1;}
	.st2{fill:url(#SVGID_1_);}
	.st3{fill:url(#SVGID_00000149372445253822589350000007083301914287271603_);}
	.st4{fill:url(#SVGID_00000136379863958179017780000015016167007823528627_);}
	.st5{fill:url(#SVGID_00000057853600854069387720000010386501035586866877_);}
</style>
<g>
	<path class="st0" d="M292.8,81.5c-0.9-2.6-1.5-4.2-1.5-12.5v-16c0-9.4-3.2-12.9-10.4-12.9h-5.5v41.3h-16V-20h24.1
		c16.5,0,23.6,7.7,23.6,23.3v8c0,10.4-3.3,17.1-10.4,20.4V32c8,3.3,10.6,10.9,10.6,21.5v15.7c0,4.9,0.1,8.6,1.7,12.3H292.8z
		 M275.4-5.5v31.2h6.2c5.9,0,9.6-2.6,9.6-10.7v-10c0-7.2-2.5-10.4-8.1-10.4H275.4z"/>
	<path class="st0" d="M333.7,22.7h21.9v14.5h-21.9V67h27.6v14.5h-43.5V-20h43.5v14.5h-27.6V22.7z"/>
	<path class="st0" d="M422.7,81.5h-16.1l-2.8-18.4h-19.6l-2.8,18.4h-14.6L383.1-20h23.3L422.7,81.5z M386.3,49.3h15.4L394.2-2h-0.3
		L386.3,49.3z"/>
	<path class="st0" d="M430.1-20h16v87h26.2v14.5h-42.2V-20z"/>
	<path class="st0" d="M497.1-20h49.3v14.5h-16.7v87h-16v-87h-16.7V-20z"/>
	<path class="st0" d="M553.4-20h16V81.5h-16V-20z"/>
	<path class="st0" d="M614.6,52h0.3L625.6-20h22.2V81.5h-15.1V8.7h-0.3l-10.7,72.8h-15.1L595,9.7h-0.3v71.8h-13.9V-20H603L614.6,52z
		"/>
	<path class="st0" d="M675.3,22.7h21.9v14.5h-21.9V67h27.6v14.5h-43.5V-20h43.5v14.5h-27.6V22.7z"/>
	<path class="st0" d="M781.4,43.6v13.5c0,16.2-8.1,25.5-23.8,25.5c-15.7,0-23.8-9.3-23.8-25.5V4.3c0-16.2,8.1-25.5,23.8-25.5
		c15.7,0,23.8,9.3,23.8,25.5v9.9h-15.1V3.3c0-7.3-3.2-10-8.3-10s-8.3,2.8-8.3,10v54.8c0,7.2,3.2,9.9,8.3,9.9s8.3-2.6,8.3-9.9V43.6
		H781.4z"/>
	<path class="st0" d="M789.9,4.3c0-16.2,8.6-25.5,24.2-25.5s24.2,9.3,24.2,25.5v52.8c0,16.2-8.6,25.5-24.2,25.5s-24.2-9.3-24.2-25.5
		V4.3z M805.8,58.1c0,7.2,3.2,10,8.3,10s8.3-2.8,8.3-10V3.3c0-7.3-3.2-10-8.3-10s-8.3,2.8-8.3,10V58.1z"/>
	<path class="st0" d="M882.2,52h0.3L893.2-20h22.2V81.5h-15.1V8.7h-0.3l-10.7,72.8h-15.1L862.6,9.7h-0.3v71.8h-13.9V-20h22.2
		L882.2,52z"/>
	<path class="st0" d="M960.7,52h0.3L971.7-20h22.2V81.5h-15.1V8.7h-0.3l-10.7,72.8h-15.1L941.1,9.7h-0.3v71.8h-13.9V-20h22.2
		L960.7,52z"/>
	<path class="st0" d="M1021.4,22.7h21.9v14.5h-21.9V67h27.6v14.5h-43.5V-20h43.5v14.5h-27.6V22.7z"/>
	<path class="st0" d="M1073.3,8h-0.3v73.5h-14.4V-20h20l16.1,60.8h0.3V-20h14.2V81.5h-16.4L1073.3,8z"/>
	<path class="st0" d="M1116.1-20h49.3v14.5h-16.7v87h-16v-87h-16.7V-20z"/>
	<path class="st0" d="M1193.8-21.2c15.5,0,23.5,9.3,23.5,25.5v3.2h-15.1V3.3c0-7.3-2.9-10-8-10c-5.1,0-8,2.8-8,10
		c0,7.4,3.2,12.9,13.6,22c13.3,11.7,17.5,20.2,17.5,31.8c0,16.2-8.1,25.5-23.8,25.5c-15.7,0-23.8-9.3-23.8-25.5v-6.2h15.1v7.2
		c0,7.2,3.2,9.9,8.3,9.9s8.3-2.6,8.3-9.9c0-7.4-3.2-12.9-13.6-22c-13.3-11.7-17.5-20.2-17.5-31.8
		C1170.3-11.9,1178.3-21.2,1193.8-21.2z"/>
</g>
<g>
	<path class="st1" d="M275.4,123.1v1.2c0,3.5-1.1,5.6-3.4,6.7v0.1c2.8,1.1,3.9,3.6,3.9,7.2v2.7c0,5.2-2.7,8-8,8h-8.3v-33.6h8
		C273,115.3,275.4,117.9,275.4,123.1z M264.9,120.1v8.9h2.1c2,0,3.2-0.9,3.2-3.6v-1.9c0-2.4-0.8-3.5-2.7-3.5H264.9z M264.9,133.8
		v10.3h3c1.8,0,2.7-0.8,2.7-3.3v-2.9c0-3.1-1-4.1-3.4-4.1H264.9z"/>
	<path class="st1" d="M284.4,129.5h7.2v4.8h-7.2v9.8h9.1v4.8h-14.4v-33.6h14.4v4.8h-9.1V129.5z"/>
	<path class="st1" d="M295.4,115.3h16.3v4.8h-5.5v28.8h-5.3v-28.8h-5.5V115.3z"/>
	<path class="st1" d="M312.6,115.3h16.3v4.8h-5.5v28.8h-5.3v-28.8h-5.5V115.3z"/>
	<path class="st1" d="M336.6,129.5h7.2v4.8h-7.2v9.8h9.1v4.8h-14.4v-33.6h14.4v4.8h-9.1V129.5z"/>
	<path class="st1" d="M360.1,148.9c-0.3-0.9-0.5-1.4-0.5-4.1v-5.3c0-3.1-1.1-4.3-3.5-4.3h-1.8v13.7H349v-33.6h8
		c5.5,0,7.8,2.5,7.8,7.7v2.6c0,3.5-1.1,5.7-3.5,6.8v0.1c2.6,1.1,3.5,3.6,3.5,7.1v5.2c0,1.6,0,2.8,0.6,4.1H360.1z M354.3,120.1v10.3
		h2.1c2,0,3.2-0.9,3.2-3.6v-3.3c0-2.4-0.8-3.5-2.7-3.5H354.3z"/>
	<path class="st1" d="M387.7,131L387.7,131l-2,17.9h-7.2l-3.7-33.6h5.1l2.8,26.5h0.1l2.5-26.5h5.1L393,142h0.1l2.7-26.7h4.6
		l-3.7,33.6h-7L387.7,131z"/>
	<path class="st1" d="M402.7,123.4c0-5.4,2.8-8.4,8-8.4s8,3.1,8,8.4v17.5c0,5.4-2.8,8.4-8,8.4s-8-3.1-8-8.4V123.4z M407.9,141.2
		c0,2.4,1.1,3.3,2.7,3.3c1.7,0,2.7-0.9,2.7-3.3v-18.1c0-2.4-1.1-3.3-2.7-3.3c-1.7,0-2.7,0.9-2.7,3.3V141.2z"/>
	<path class="st1" d="M433.2,148.9c-0.3-0.9-0.5-1.4-0.5-4.1v-5.3c0-3.1-1.1-4.3-3.5-4.3h-1.8v13.7h-5.3v-33.6h8
		c5.5,0,7.8,2.5,7.8,7.7v2.6c0,3.5-1.1,5.7-3.5,6.8v0.1c2.6,1.1,3.5,3.6,3.5,7.1v5.2c0,1.6,0,2.8,0.6,4.1H433.2z M427.5,120.1v10.3
		h2.1c2,0,3.2-0.9,3.2-3.6v-3.3c0-2.4-0.8-3.5-2.7-3.5H427.5z"/>
	<path class="st1" d="M441.6,115.3h8.4c5.3,0,7.9,2.9,7.9,8.3v17c0,5.4-2.6,8.3-7.9,8.3h-8.4V115.3z M446.9,120.1v24h3
		c1.7,0,2.7-0.9,2.7-3.3v-17.5c0-2.4-1-3.3-2.7-3.3H446.9z"/>
	<path class="st1" d="M476.9,123.6v4.4c0,5.4-2.6,8.3-7.9,8.3h-2.5v12.6h-5.3v-33.6h7.8C474.3,115.3,476.9,118.2,476.9,123.6z
		 M466.5,120.1v11.4h2.5c1.7,0,2.6-0.8,2.6-3.2v-5c0-2.4-0.9-3.2-2.6-3.2H466.5z"/>
	<path class="st1" d="M490.5,148.9c-0.3-0.9-0.5-1.4-0.5-4.1v-5.3c0-3.1-1.1-4.3-3.5-4.3h-1.8v13.7h-5.3v-33.6h8
		c5.5,0,7.8,2.5,7.8,7.7v2.6c0,3.5-1.1,5.7-3.5,6.8v0.1c2.6,1.1,3.5,3.6,3.5,7.1v5.2c0,1.6,0,2.8,0.6,4.1H490.5z M484.7,120.1v10.3
		h2.1c2,0,3.2-0.9,3.2-3.6v-3.3c0-2.4-0.8-3.5-2.7-3.5H484.7z"/>
	<path class="st1" d="M504.1,129.5h7.2v4.8h-7.2v9.8h9.1v4.8h-14.4v-33.6h14.4v4.8h-9.1V129.5z"/>
	<path class="st1" d="M523.7,114.9c5.1,0,7.8,3.1,7.8,8.4v1.1h-5v-1.4c0-2.4-1-3.3-2.6-3.3c-1.7,0-2.6,0.9-2.6,3.3
		c0,2.4,1.1,4.3,4.5,7.3c4.4,3.9,5.8,6.7,5.8,10.5c0,5.4-2.7,8.4-7.9,8.4s-7.9-3.1-7.9-8.4v-2.1h5v2.4c0,2.4,1.1,3.3,2.7,3.3
		c1.7,0,2.7-0.9,2.7-3.3c0-2.4-1.1-4.3-4.5-7.3c-4.4-3.9-5.8-6.7-5.8-10.5C515.9,118,518.6,114.9,523.7,114.9z"/>
	<path class="st1" d="M541.8,114.9c5.1,0,7.8,3.1,7.8,8.4v1.1h-5v-1.4c0-2.4-1-3.3-2.6-3.3c-1.7,0-2.6,0.9-2.6,3.3
		c0,2.4,1.1,4.3,4.5,7.3c4.4,3.9,5.8,6.7,5.8,10.5c0,5.4-2.7,8.4-7.9,8.4s-7.9-3.1-7.9-8.4v-2.1h5v2.4c0,2.4,1.1,3.3,2.7,3.3
		c1.7,0,2.7-0.9,2.7-3.3c0-2.4-1.1-4.3-4.5-7.3c-4.4-3.9-5.8-6.7-5.8-10.5C534,118,536.6,114.9,541.8,114.9z"/>
	<path class="st1" d="M575.6,136.4v4.5c0,5.4-2.7,8.4-7.9,8.4c-5.2,0-7.9-3.1-7.9-8.4v-17.5c0-5.4,2.7-8.4,7.9-8.4
		c5.2,0,7.9,3.1,7.9,8.4v3.3h-5v-3.6c0-2.4-1.1-3.3-2.7-3.3c-1.7,0-2.7,0.9-2.7,3.3v18.1c0,2.4,1.1,3.3,2.7,3.3
		c1.7,0,2.7-0.9,2.7-3.3v-4.8H575.6z"/>
	<path class="st1" d="M578.4,123.4c0-5.4,2.8-8.4,8-8.4s8,3.1,8,8.4v17.5c0,5.4-2.8,8.4-8,8.4s-8-3.1-8-8.4V123.4z M583.7,141.2
		c0,2.4,1.1,3.3,2.7,3.3c1.7,0,2.7-0.9,2.7-3.3v-18.1c0-2.4-1.1-3.3-2.7-3.3c-1.7,0-2.7,0.9-2.7,3.3V141.2z"/>
	<path class="st1" d="M609.1,139.2L609.1,139.2l3.6-23.9h7.3v33.6h-5v-24.1H615l-3.6,24.1h-5l-3.8-23.8h-0.1v23.8h-4.6v-33.6h7.3
		L609.1,139.2z"/>
	<path class="st1" d="M635.2,139.2L635.2,139.2l3.6-23.9h7.3v33.6h-5v-24.1h-0.1l-3.6,24.1h-5l-3.8-23.8h-0.1v23.8H624v-33.6h7.3
		L635.2,139.2z"/>
	<path class="st1" d="M655.4,129.5h7.2v4.8h-7.2v9.8h9.1v4.8h-14.4v-33.6h14.4v4.8h-9.1V129.5z"/>
	<path class="st1" d="M672.7,124.6L672.7,124.6l-0.1,24.3h-4.8v-33.6h6.6l5.3,20.1h0.1v-20.1h4.7v33.6h-5.4L672.7,124.6z"/>
	<path class="st1" d="M686.9,115.3h16.3v4.8h-5.5v28.8h-5.3v-28.8h-5.5V115.3z"/>
	<path class="st1" d="M712.7,114.9c5.1,0,7.8,3.1,7.8,8.4v1.1h-5v-1.4c0-2.4-1-3.3-2.6-3.3c-1.7,0-2.6,0.9-2.6,3.3
		c0,2.4,1.1,4.3,4.5,7.3c4.4,3.9,5.8,6.7,5.8,10.5c0,5.4-2.7,8.4-7.9,8.4s-7.9-3.1-7.9-8.4v-2.1h5v2.4c0,2.4,1.1,3.3,2.7,3.3
		c1.7,0,2.7-0.9,2.7-3.3c0-2.4-1.1-4.3-4.5-7.3c-4.4-3.9-5.8-6.7-5.8-10.5C705,118,707.6,114.9,712.7,114.9z"/>
	<path class="st1" d="M739.1,142.7L739.1,142.7l4.1-27.4h4.8l-5.2,33.6H735l-5.2-33.6h5.3L739.1,142.7z"/>
	<path class="st1" d="M750.6,115.3h5.3v33.6h-5.3V115.3z"/>
	<path class="st1" d="M776.9,148.9h-5.3l-0.9-6.1h-6.5l-0.9,6.1h-4.8l5.4-33.6h7.7L776.9,148.9z M764.9,138.3h5.1l-2.5-17h-0.1
		L764.9,138.3z"/>
	<path class="st1" d="M804.1,148.9h-5.3l-0.9-6.1h-6.5l-0.9,6.1h-4.8l5.4-33.6h7.7L804.1,148.9z M792,138.3h5.1l-2.5-17h-0.1
		L792,138.3z"/>
	<path class="st1" d="M805.2,144.1c0.6,0,1.2,0,1.8,0c1.7,0,3-0.6,3-3.2v-25.6h5.3v25.2c0,6.7-3.6,8.4-7.6,8.4c-1,0-1.7,0-2.5-0.1
		V144.1z"/>
	<path class="st1" d="M836.1,148.9h-5.3l-0.9-6.1h-6.5l-0.9,6.1h-4.8l5.4-33.6h7.7L836.1,148.9z M824,138.3h5.1l-2.5-17h-0.1
		L824,138.3z"/>
	<path class="st1" d="M856.3,115.3l-5.5,16.3l5.9,17.3h-5.6l-4.3-13.3h-0.1l-4.3,13.3h-4.9l5.9-17.3l-5.5-16.3h5.5l3.9,12.4h0.1
		l4-12.4H856.3z"/>
	<path class="st1" d="M866.5,123.4c0-5.4,2.8-8.4,8-8.4s8,3.1,8,8.4v17.5c0,5.4-2.8,8.4-8,8.4s-8-3.1-8-8.4V123.4z M871.8,141.2
		c0,2.4,1.1,3.3,2.7,3.3c1.7,0,2.7-0.9,2.7-3.3v-18.1c0-2.4-1.1-3.3-2.7-3.3c-1.7,0-2.7,0.9-2.7,3.3V141.2z"/>
	<path class="st1" d="M897.1,148.9c-0.3-0.9-0.5-1.4-0.5-4.1v-5.3c0-3.1-1.1-4.3-3.5-4.3h-1.8v13.7H886v-33.6h8
		c5.5,0,7.8,2.5,7.8,7.7v2.6c0,3.5-1.1,5.7-3.5,6.8v0.1c2.6,1.1,3.5,3.6,3.5,7.1v5.2c0,1.6,0,2.8,0.6,4.1H897.1z M891.3,120.1v10.3
		h2.1c2,0,3.2-0.9,3.2-3.6v-3.3c0-2.4-0.8-3.5-2.7-3.5H891.3z"/>
	<path class="st1" d="M928.6,123.6v4.4c0,5.4-2.6,8.3-7.9,8.3h-2.5v12.6h-5.3v-33.6h7.8C926,115.3,928.6,118.2,928.6,123.6z
		 M918.2,120.1v11.4h2.5c1.7,0,2.6-0.8,2.6-3.2v-5c0-2.4-0.9-3.2-2.6-3.2H918.2z"/>
	<path class="st1" d="M936.2,115.3v25.9c0,2.4,1.1,3.3,2.7,3.3c1.7,0,2.7-0.9,2.7-3.3v-25.9h5v25.6c0,5.4-2.7,8.4-7.9,8.4
		s-7.9-3.1-7.9-8.4v-25.6H936.2z"/>
	<path class="st1" d="M957.4,114.9c5.1,0,7.8,3.1,7.8,8.4v1.1h-5v-1.4c0-2.4-1-3.3-2.6-3.3c-1.7,0-2.6,0.9-2.6,3.3
		c0,2.4,1.1,4.3,4.5,7.3c4.4,3.9,5.8,6.7,5.8,10.5c0,5.4-2.7,8.4-7.9,8.4s-7.9-3.1-7.9-8.4v-2.1h5v2.4c0,2.4,1.1,3.3,2.7,3.3
		c1.7,0,2.7-0.9,2.7-3.3c0-2.4-1.1-4.3-4.5-7.3c-4.4-3.9-5.8-6.7-5.8-10.5C949.7,118,952.3,114.9,957.4,114.9z"/>
	<path class="st1" d="M973.7,148.9h-5.3v-33.6h5.3v14.4h6v-14.4h5.4v33.6h-5.4v-14.4h-6V148.9z"/>
	<path class="st1" d="M994.2,129.5h7.2v4.8h-7.2v9.8h9.1v4.8H989v-33.6h14.4v4.8h-9.1V129.5z"/>
	<path class="st1" d="M1017.8,148.9c-0.3-0.9-0.5-1.4-0.5-4.1v-5.3c0-3.1-1.1-4.3-3.5-4.3h-1.8v13.7h-5.3v-33.6h8
		c5.5,0,7.8,2.5,7.8,7.7v2.6c0,3.5-1.1,5.7-3.5,6.8v0.1c2.6,1.1,3.5,3.6,3.5,7.1v5.2c0,1.6,0,2.8,0.6,4.1H1017.8z M1012,120.1v10.3
		h2.1c2,0,3.2-0.9,3.2-3.6v-3.3c0-2.4-0.8-3.5-2.7-3.5H1012z"/>
	<path class="st1" d="M1033.7,115.3h5.3v33.6h-5.3V115.3z"/>
	<path class="st1" d="M1047.7,124.6L1047.7,124.6l-0.1,24.3h-4.8v-33.6h6.6l5.3,20.1h0.1v-20.1h4.7v33.6h-5.4L1047.7,124.6z"/>
	<path class="st1" d="M1082,148.9c-0.3-0.9-0.5-1.4-0.5-4.1v-5.3c0-3.1-1.1-4.3-3.5-4.3h-1.8v13.7h-5.3v-33.6h8
		c5.5,0,7.8,2.5,7.8,7.7v2.6c0,3.5-1.1,5.7-3.5,6.8v0.1c2.6,1.1,3.5,3.6,3.5,7.1v5.2c0,1.6,0,2.8,0.6,4.1H1082z M1076.3,120.1v10.3
		h2.1c2,0,3.2-0.9,3.2-3.6v-3.3c0-2.4-0.8-3.5-2.7-3.5H1076.3z"/>
	<path class="st1" d="M1095.7,129.5h7.2v4.8h-7.2v9.8h9.1v4.8h-14.4v-33.6h14.4v4.8h-9.1V129.5z"/>
	<path class="st1" d="M1125.2,148.9h-5.3l-0.9-6.1h-6.5l-0.9,6.1h-4.8l5.4-33.6h7.7L1125.2,148.9z M1113.2,138.3h5.1l-2.5-17h-0.1
		L1113.2,138.3z"/>
	<path class="st1" d="M1127.8,115.3h5.3v28.8h8.7v4.8h-14V115.3z"/>
	<path class="st1" d="M1150.1,115.3h16.3v4.8h-5.5v28.8h-5.3v-28.8h-5.5V115.3z"/>
	<path class="st1" d="M1168.9,115.3h5.3v33.6h-5.3V115.3z"/>
	<path class="st1" d="M1189.2,139.2L1189.2,139.2l3.6-23.9h7.3v33.6h-5v-24.1h-0.1l-3.6,24.1h-5l-3.8-23.8h-0.1v23.8h-4.6v-33.6h7.3
		L1189.2,139.2z"/>
	<path class="st1" d="M1209.4,129.5h7.2v4.8h-7.2v9.8h9.1v4.8h-14.4v-33.6h14.4v4.8h-9.1V129.5z"/>
</g>
<g>
	<linearGradient id="SVGID_1_" gradientUnits="userSpaceOnUse" x1="113.9798" y1="87.204" x2="21.7429" y2="-2.5567">
		<stop  offset="0" style="stop-color:#3DA7DF"/>
		<stop  offset="1" style="stop-color:#28347B"/>
	</linearGradient>
	<polygon class="st2" points="106.9,39.2 106.9,94.1 30.4,50 30.4,61.3 101.7,102.5 116.2,94.1 116.2,33.9 64,3.8 54.7,9.1 	"/>
	
		<linearGradient id="SVGID_00000135683249381588496960000013223407699608756356_" gradientUnits="userSpaceOnUse" x1="84.2049" y1="117.8009" x2="-8.0318" y2="28.0405">
		<stop  offset="0" style="stop-color:#3DA7DF"/>
		<stop  offset="1" style="stop-color:#28347B"/>
	</linearGradient>
	<polygon style="fill:url(#SVGID_00000135683249381588496960000013223407699608756356_);" points="30.4,83.4 82.6,113.5 92.4,107.8 
		30.4,72 	"/>
	
		<linearGradient id="SVGID_00000054956373258292198050000001791605152349331124_" gradientUnits="userSpaceOnUse" x1="118.3317" y1="82.7341" x2="26.0927" y2="-7.0286">
		<stop  offset="0" style="stop-color:#3DA7DF"/>
		<stop  offset="1" style="stop-color:#28347B"/>
	</linearGradient>
	<polygon style="fill:url(#SVGID_00000054956373258292198050000001791605152349331124_);" points="35.6,20.2 97.6,56 97.6,44.6 
		45.4,14.5 	"/>
	
		<linearGradient id="SVGID_00000096742791604720790690000012612488741037894833_" gradientUnits="userSpaceOnUse" x1="88.5544" y1="113.3301" x2="-3.6823" y2="23.5696">
		<stop  offset="0" style="stop-color:#3DA7DF"/>
		<stop  offset="1" style="stop-color:#28347B"/>
	</linearGradient>
	<polygon style="fill:url(#SVGID_00000096742791604720790690000012612488741037894833_);" points="21.1,88.8 21.1,33.9 97.6,78 
		97.6,66.7 26.3,25.5 11.8,33.9 11.8,94.1 64,124.2 73.3,118.9 	"/>
</g>
</svg>
